<svg xmlns="http://www.w3.org/2000/svg" viewBox="0 0 870 300"> <path d="M15,0h15v15h-15z M30,0h15v15h-15z M45,0h15v15h-15z M60,0h15v15h-15z M75,0h15v15h-15z M90,0h15v15h-15z M105,0h15v15h-15z M120,0h15v15h-15z M135,0h15v15h-15z M150,0h15v15h-15z M165,0h15v15h-15z M225,0h15v15h-15z M240,0h15v15h-15z M255,0h15v15h-15z M270,0h15v15h-15z M285,0h15v15h-15z M300,0h15v15h-15z M315,0h15v15h-15z M330,0h15v15h-15z M390,0h15v15h-15z M405,0h15v15h-15z M420,0h15v15h-15z M435,0h15v15h-15z M450,0h15v15h-15z M510,0h15v15h-15z M525,0h15v15h-15z M540,0h15v15h-15z M555,0h15v15h-15z M570,0h15v15h-15z M75,15h15v15h-15z M90,15h15v15h-15z M105,15h15v15h-15z M210,15h15v15h-15z M225,15h15v15h-15z M240,15h15v15h-15z M315,15h15v15h-15z M330,15h15v15h-15z M345,15h15v15h-15z M405,15h15v15h-15z M420,15h15v15h-15z M435,15h15v15h-15z M450,15h15v15h-15z M465,15h15v15h-15z M525,15h15v15h-15z M540,15h15v15h-15z M555,15h15v15h-15z M75,30h15v15h-15z M90,30h15v15h-15z M105,30h15v15h-15z M195,30h15v15h-15z M210,30h15v15h-15z M225,30h15v15h-15z M405,30h15v15h-15z M420,30h15v15h-15z M435,30h15v15h-15z M465,30h15v15h-15z M480,30h15v15h-15z M525,30h15v15h-15z M540,30h15v15h-15z M555,30h15v15h-15z M75,45h15v15h-15z M90,45h15v15h-15z M105,45h15v15h-15z M195,45h15v15h-15z M210,45h15v15h-15z M225,45h15v15h-15z M405,45h15v15h-15z M420,45h15v15h-15z M435,45h15v15h-15z M480,45h15v15h-15z M495,45h15v15h-15z M525,45h15v15h-15z M540,45h15v15h-15z M555,45h15v15h-15z M75,60h15v15h-15z M90,60h15v15h-15z M105,60h15v15h-15z M195,60h15v15h-15z M210,60h15v15h-15z M225,60h15v15h-15z M405,60h15v15h-15z M420,60h15v15h-15z M435,60h15v15h-15z M495,60h15v15h-15z M510,60h15v15h-15z M525,60h15v15h-15z M540,60h15v15h-15z M555,60h15v15h-15z M75,75h15v15h-15z M90,75h15v15h-15z M105,75h15v15h-15z M210,75h15v15h-15z M225,75h15v15h-15z M240,75h15v15h-15z M315,75h15v15h-15z M330,75h15v15h-15z M345,75h15v15h-15z M405,75h15v15h-15z M420,75h15v15h-15z M435,75h15v15h-15z M510,75h15v15h-15z M525,75h15v15h-15z M540,75h15v15h-15z M555,75h15v15h-15z M60,90h15v15h-15z M75,90h15v15h-15z M90,90h15v15h-15z M105,90h15v15h-15z M120,90h15v15h-15z M225,90h15v15h-15z M240,90h15v15h-15z M255,90h15v15h-15z M270,90h15v15h-15z M285,90h15v15h-15z M300,90h15v15h-15z M315,90h15v15h-15z M330,90h15v15h-15z M390,90h15v15h-15z M405,90h15v15h-15z M420,90h15v15h-15z M435,90h15v15h-15z M450,90h15v15h-15z M510,90h15v15h-15z M525,90h15v15h-15z M540,90h15v15h-15z M555,90h15v15h-15z M570,90h15v15h-15z M45,180h15v15h-15z M60,180h15v15h-15z M75,180h15v15h-15z M90,180h15v15h-15z M105,180h15v15h-15z M120,180h15v15h-15z M135,180h15v15h-15z M150,180h15v15h-15z M165,180h15v15h-15z M225,180h15v15h-15z M240,180h15v15h-15z M255,180h15v15h-15z M270,180h15v15h-15z M285,180h15v15h-15z M330,180h15v15h-15z M345,180h15v15h-15z M360,180h15v15h-15z M375,180h15v15h-15z M390,180h15v15h-15z M405,180h15v15h-15z M420,180h15v15h-15z M435,180h15v15h-15z M450,180h15v15h-15z M465,180h15v15h-15z M480,180h15v15h-15z M525,180h15v15h-15z M540,180h15v15h-15z M555,180h15v15h-15z M570,180h15v15h-15z M585,180h15v15h-15z M600,180h15v15h-15z M615,180h15v15h-15z M630,180h15v15h-15z M645,180h15v15h-15z M660,180h15v15h-15z M735,180h15v15h-15z M750,180h15v15h-15z M765,180h15v15h-15z M780,180h15v15h-15z M795,180h15v15h-15z M810,180h15v15h-15z M825,180h15v15h-15z M30,195h15v15h-15z M45,195h15v15h-15z M60,195h15v15h-15z M150,195h15v15h-15z M165,195h15v15h-15z M180,195h15v15h-15z M240,195h15v15h-15z M255,195h15v15h-15z M270,195h15v15h-15z M390,195h15v15h-15z M405,195h15v15h-15z M420,195h15v15h-15z M540,195h15v15h-15z M555,195h15v15h-15z M570,195h15v15h-15z M660,195h15v15h-15z M720,195h15v15h-15z M735,195h15v15h-15z M750,195h15v15h-15z M810,195h15v15h-15z M825,195h15v15h-15z M840,195h15v15h-15z M15,210h15v15h-15z M30,210h15v15h-15z M45,210h15v15h-15z M240,210h15v15h-15z M255,210h15v15h-15z M270,210h15v15h-15z M390,210h15v15h-15z M405,210h15v15h-15z M420,210h15v15h-15z M540,210h15v15h-15z M555,210h15v15h-15z M570,210h15v15h-15z M615,210h15v15h-15z M720,210h15v15h-15z M735,210h15v15h-15z M750,210h15v15h-15z M810,210h15v15h-15z M825,210h15v15h-15z M840,210h15v15h-15z M15,225h15v15h-15z M30,225h15v15h-15z M45,225h15v15h-15z M240,225h15v15h-15z M255,225h15v15h-15z M270,225h15v15h-15z M390,225h15v15h-15z M405,225h15v15h-15z M420,225h15v15h-15z M540,225h15v15h-15z M555,225h15v15h-15z M570,225h15v15h-15z M585,225h15v15h-15z M600,225h15v15h-15z M615,225h15v15h-15z M720,225h15v15h-15z M735,225h15v15h-15z M750,225h15v15h-15z M765,225h15v15h-15z M780,225h15v15h-15z M795,225h15v15h-15z M810,225h15v15h-15z M825,225h15v15h-15z M840,225h15v15h-15z M15,240h15v15h-15z M30,240h15v15h-15z M45,240h15v15h-15z M120,240h15v15h-15z M135,240h15v15h-15z M150,240h15v15h-15z M165,240h15v15h-15z M180,240h15v15h-15z M240,240h15v15h-15z M255,240h15v15h-15z M270,240h15v15h-15z M390,240h15v15h-15z M405,240h15v15h-15z M420,240h15v15h-15z M540,240h15v15h-15z M555,240h15v15h-15z M570,240h15v15h-15z M615,240h15v15h-15z M720,240h15v15h-15z M735,240h15v15h-15z M750,240h15v15h-15z M810,240h15v15h-15z M825,240h15v15h-15z M840,240h15v15h-15z M30,255h15v15h-15z M45,255h15v15h-15z M60,255h15v15h-15z M135,255h15v15h-15z M150,255h15v15h-15z M165,255h15v15h-15z M240,255h15v15h-15z M255,255h15v15h-15z M270,255h15v15h-15z M390,255h15v15h-15z M405,255h15v15h-15z M420,255h15v15h-15z M540,255h15v15h-15z M555,255h15v15h-15z M570,255h15v15h-15z M660,255h15v15h-15z M720,255h15v15h-15z M735,255h15v15h-15z M750,255h15v15h-15z M810,255h15v15h-15z M825,255h15v15h-15z M840,255h15v15h-15z M45,270h15v15h-15z M60,270h15v15h-15z M75,270h15v15h-15z M90,270h15v15h-15z M105,270h15v15h-15z M120,270h15v15h-15z M135,270h15v15h-15z M150,270h15v15h-15z M165,270h15v15h-15z M225,270h15v15h-15z M240,270h15v15h-15z M255,270h15v15h-15z M270,270h15v15h-15z M285,270h15v15h-15z M375,270h15v15h-15z M390,270h15v15h-15z M405,270h15v15h-15z M420,270h15v15h-15z M435,270h15v15h-15z M525,270h15v15h-15z M540,270h15v15h-15z M555,270h15v15h-15z M570,270h15v15h-15z M585,270h15v15h-15z M600,270h15v15h-15z M615,270h15v15h-15z M630,270h15v15h-15z M645,270h15v15h-15z M660,270h15v15h-15z M705,270h15v15h-15z M720,270h15v15h-15z M735,270h15v15h-15z M750,270h15v15h-15z M765,270h15v15h-15z M795,270h15v15h-15z M810,270h15v15h-15z M825,270h15v15h-15z M840,270h15v15h-15z M855,270h15v15h-15z" fill="#4f89e8"/> <path d="M0,15h15v15h-15z M15,15h15v15h-15z M30,15h15v15h-15z M45,15h15v15h-15z M60,15h15v15h-15z M120,15h15v15h-15z M135,15h15v15h-15z M150,15h15v15h-15z M165,15h15v15h-15z M255,15h15v15h-15z M270,15h15v15h-15z M285,15h15v15h-15z M300,15h15v15h-15z M375,15h15v15h-15z M390,15h15v15h-15z M495,15h15v15h-15z M510,15h15v15h-15z M60,30h15v15h-15z M300,30h15v15h-15z M315,30h15v15h-15z M330,30h15v15h-15z M390,30h15v15h-15z M450,30h15v15h-15z M510,30h15v15h-15z M60,45h15v15h-15z M180,45h15v15h-15z M390,45h15v15h-15z M450,45h15v15h-15z M465,45h15v15h-15z M510,45h15v15h-15z M60,60h15v15h-15z M180,60h15v15h-15z M390,60h15v15h-15z M465,60h15v15h-15z M480,60h15v15h-15z M60,75h15v15h-15z M180,75h15v15h-15z M195,75h15v15h-15z M390,75h15v15h-15z M480,75h15v15h-15z M495,75h15v15h-15z M195,90h15v15h-15z M210,90h15v15h-15z M480,90h15v15h-15z M495,90h15v15h-15z M60,105h15v15h-15z M75,105h15v15h-15z M90,105h15v15h-15z M105,105h15v15h-15z M120,105h15v15h-15z M225,105h15v15h-15z M240,105h15v15h-15z M255,105h15v15h-15z M270,105h15v15h-15z M285,105h15v15h-15z M300,105h15v15h-15z M315,105h15v15h-15z M390,105h15v15h-15z M405,105h15v15h-15z M420,105h15v15h-15z M435,105h15v15h-15z M450,105h15v15h-15z M510,105h15v15h-15z M525,105h15v15h-15z M540,105h15v15h-15z M555,105h15v15h-15z M570,105h15v15h-15z M75,195h15v15h-15z M90,195h15v15h-15z M105,195h15v15h-15z M120,195h15v15h-15z M135,195h15v15h-15z M210,195h15v15h-15z M225,195h15v15h-15z M315,195h15v15h-15z M330,195h15v15h-15z M345,195h15v15h-15z M360,195h15v15h-15z M375,195h15v15h-15z M435,195h15v15h-15z M450,195h15v15h-15z M465,195h15v15h-15z M480,195h15v15h-15z M510,195h15v15h-15z M525,195h15v15h-15z M585,195h15v15h-15z M600,195h15v15h-15z M615,195h15v15h-15z M630,195h15v15h-15z M645,195h15v15h-15z M765,195h15v15h-15z M780,195h15v15h-15z M795,195h15v15h-15z M135,210h15v15h-15z M150,210h15v15h-15z M165,210h15v15h-15z M225,210h15v15h-15z M375,210h15v15h-15z M525,210h15v15h-15z M645,210h15v15h-15z M705,210h15v15h-15z M795,210h15v15h-15z M0,225h15v15h-15z M225,225h15v15h-15z M375,225h15v15h-15z M525,225h15v15h-15z M705,225h15v15h-15z M0,240h15v15h-15z M225,240h15v15h-15z M375,240h15v15h-15z M525,240h15v15h-15z M585,240h15v15h-15z M600,240h15v15h-15z M705,240h15v15h-15z M765,240h15v15h-15z M780,240h15v15h-15z M795,240h15v15h-15z M0,255h15v15h-15z M15,255h15v15h-15z M105,255h15v15h-15z M120,255h15v15h-15z M225,255h15v15h-15z M375,255h15v15h-15z M525,255h15v15h-15z M600,255h15v15h-15z M705,255h15v15h-15z M795,255h15v15h-15z M15,270h15v15h-15z M30,270h15v15h-15z M30,285h15v15h-15z M45,285h15v15h-15z M60,285h15v15h-15z M75,285h15v15h-15z M90,285h15v15h-15z M105,285h15v15h-15z M120,285h15v15h-15z M135,285h15v15h-15z M150,285h15v15h-15z M210,285h15v15h-15z M225,285h15v15h-15z M240,285h15v15h-15z M255,285h15v15h-15z M270,285h15v15h-15z M360,285h15v15h-15z M375,285h15v15h-15z M390,285h15v15h-15z M405,285h15v15h-15z M420,285h15v15h-15z M510,285h15v15h-15z M525,285h15v15h-15z M540,285h15v15h-15z M555,285h15v15h-15z M570,285h15v15h-15z M585,285h15v15h-15z M600,285h15v15h-15z M615,285h15v15h-15z M630,285h15v15h-15z M645,285h15v15h-15z M690,285h15v15h-15z M705,285h15v15h-15z M720,285h15v15h-15z M735,285h15v15h-15z M750,285h15v15h-15z M780,285h15v15h-15z M795,285h15v15h-15z M810,285h15v15h-15z M825,285h15v15h-15z M840,285h15v15h-15z" fill="#4f89e8" fill-opacity="0.4"/> </svg>
