<svg xmlns="http://www.w3.org/2000/svg" viewBox="0 0 5800 2400"> <path d="M100,0h100v100h-100z M200,0h100v100h-100z M300,0h100v100h-100z M400,0h100v100h-100z M500,0h100v100h-100z M600,0h100v100h-100z M700,0h100v100h-100z M800,0h100v100h-100z M900,0h100v100h-100z M1000,0h100v100h-100z M1100,0h100v100h-100z M1600,0h100v100h-100z M1700,0h100v100h-100z M1800,0h100v100h-100z M1900,0h100v100h-100z M2000,0h100v100h-100z M2100,0h100v100h-100z M2600,0h100v100h-100z M2700,0h100v100h-100z M2800,0h100v100h-100z M2900,0h100v100h-100z M3000,0h100v100h-100z M3400,0h100v100h-100z M3500,0h100v100h-100z M3600,0h100v100h-100z M3700,0h100v100h-100z M3800,0h100v100h-100z M100,100h100v100h-100z M200,100h100v100h-100z M300,100h100v100h-100z M400,100h100v100h-100z M500,100h100v100h-100z M600,100h100v100h-100z M700,100h100v100h-100z M800,100h100v100h-100z M900,100h100v100h-100z M1000,100h100v100h-100z M1100,100h100v100h-100z M1500,100h100v100h-100z M1600,100h100v100h-100z M1700,100h100v100h-100z M1800,100h100v100h-100z M1900,100h100v100h-100z M2000,100h100v100h-100z M2100,100h100v100h-100z M2200,100h100v100h-100z M2600,100h100v100h-100z M2700,100h100v100h-100z M2800,100h100v100h-100z M2900,100h100v100h-100z M3000,100h100v100h-100z M3400,100h100v100h-100z M3500,100h100v100h-100z M3600,100h100v100h-100z M3700,100h100v100h-100z M3800,100h100v100h-100z M500,200h100v100h-100z M600,200h100v100h-100z M700,200h100v100h-100z M1400,200h100v100h-100z M1500,200h100v100h-100z M1600,200h100v100h-100z M2100,200h100v100h-100z M2200,200h100v100h-100z M2300,200h100v100h-100z M2700,200h100v100h-100z M2800,200h100v100h-100z M2900,200h100v100h-100z M3000,200h100v100h-100z M3100,200h100v100h-100z M3500,200h100v100h-100z M3600,200h100v100h-100z M3700,200h100v100h-100z M500,300h100v100h-100z M600,300h100v100h-100z M700,300h100v100h-100z M1300,300h100v100h-100z M1400,300h100v100h-100z M1500,300h100v100h-100z M2700,300h100v100h-100z M2800,300h100v100h-100z M2900,300h100v100h-100z M3100,300h100v100h-100z M3200,300h100v100h-100z M3500,300h100v100h-100z M3600,300h100v100h-100z M3700,300h100v100h-100z M500,400h100v100h-100z M600,400h100v100h-100z M700,400h100v100h-100z M1300,400h100v100h-100z M1400,400h100v100h-100z M1500,400h100v100h-100z M2700,400h100v100h-100z M2800,400h100v100h-100z M2900,400h100v100h-100z M3200,400h100v100h-100z M3300,400h100v100h-100z M3500,400h100v100h-100z M3600,400h100v100h-100z M3700,400h100v100h-100z M500,500h100v100h-100z M600,500h100v100h-100z M700,500h100v100h-100z M1300,500h100v100h-100z M1400,500h100v100h-100z M1500,500h100v100h-100z M2700,500h100v100h-100z M2800,500h100v100h-100z M2900,500h100v100h-100z M3300,500h100v100h-100z M3400,500h100v100h-100z M3500,500h100v100h-100z M3600,500h100v100h-100z M3700,500h100v100h-100z M500,600h100v100h-100z M600,600h100v100h-100z M700,600h100v100h-100z M1400,600h100v100h-100z M1500,600h100v100h-100z M1600,600h100v100h-100z M2100,600h100v100h-100z M2200,600h100v100h-100z M2300,600h100v100h-100z M2700,600h100v100h-100z M2800,600h100v100h-100z M2900,600h100v100h-100z M3400,600h100v100h-100z M3500,600h100v100h-100z M3600,600h100v100h-100z M3700,600h100v100h-100z M400,700h100v100h-100z M500,700h100v100h-100z M600,700h100v100h-100z M700,700h100v100h-100z M800,700h100v100h-100z M1500,700h100v100h-100z M1600,700h100v100h-100z M1700,700h100v100h-100z M1800,700h100v100h-100z M1900,700h100v100h-100z M2000,700h100v100h-100z M2100,700h100v100h-100z M2200,700h100v100h-100z M2600,700h100v100h-100z M2700,700h100v100h-100z M2800,700h100v100h-100z M2900,700h100v100h-100z M3000,700h100v100h-100z M3400,700h100v100h-100z M3500,700h100v100h-100z M3600,700h100v100h-100z M3700,700h100v100h-100z M3800,700h100v100h-100z M400,800h100v100h-100z M500,800h100v100h-100z M600,800h100v100h-100z M700,800h100v100h-100z M800,800h100v100h-100z M1600,800h100v100h-100z M1700,800h100v100h-100z M1800,800h100v100h-100z M1900,800h100v100h-100z M2000,800h100v100h-100z M2100,800h100v100h-100z M2600,800h100v100h-100z M2700,800h100v100h-100z M2800,800h100v100h-100z M2900,800h100v100h-100z M3000,800h100v100h-100z M3400,800h100v100h-100z M3500,800h100v100h-100z M3600,800h100v100h-100z M3700,800h100v100h-100z M3800,800h100v100h-100z M400,1400h100v100h-100z M500,1400h100v100h-100z M600,1400h100v100h-100z M700,1400h100v100h-100z M800,1400h100v100h-100z M900,1400h100v100h-100z M1000,1400h100v100h-100z M1500,1400h100v100h-100z M1600,1400h100v100h-100z M1700,1400h100v100h-100z M1800,1400h100v100h-100z M1900,1400h100v100h-100z M2200,1400h100v100h-100z M2300,1400h100v100h-100z M2400,1400h100v100h-100z M2500,1400h100v100h-100z M2600,1400h100v100h-100z M2700,1400h100v100h-100z M2800,1400h100v100h-100z M2900,1400h100v100h-100z M3000,1400h100v100h-100z M3100,1400h100v100h-100z M3200,1400h100v100h-100z M3500,1400h100v100h-100z M3600,1400h100v100h-100z M3700,1400h100v100h-100z M3800,1400h100v100h-100z M3900,1400h100v100h-100z M4000,1400h100v100h-100z M4100,1400h100v100h-100z M4200,1400h100v100h-100z M4300,1400h100v100h-100z M4400,1400h100v100h-100z M5000,1400h100v100h-100z M5100,1400h100v100h-100z M5200,1400h100v100h-100z M5300,1400h100v100h-100z M5400,1400h100v100h-100z M300,1500h100v100h-100z M400,1500h100v100h-100z M500,1500h100v100h-100z M600,1500h100v100h-100z M700,1500h100v100h-100z M800,1500h100v100h-100z M900,1500h100v100h-100z M1000,1500h100v100h-100z M1100,1500h100v100h-100z M1500,1500h100v100h-100z M1600,1500h100v100h-100z M1700,1500h100v100h-100z M1800,1500h100v100h-100z M1900,1500h100v100h-100z M2200,1500h100v100h-100z M2300,1500h100v100h-100z M2400,1500h100v100h-100z M2500,1500h100v100h-100z M2600,1500h100v100h-100z M2700,1500h100v100h-100z M2800,1500h100v100h-100z M2900,1500h100v100h-100z M3000,1500h100v100h-100z M3100,1500h100v100h-100z M3200,1500h100v100h-100z M3500,1500h100v100h-100z M3600,1500h100v100h-100z M3700,1500h100v100h-100z M3800,1500h100v100h-100z M3900,1500h100v100h-100z M4000,1500h100v100h-100z M4100,1500h100v100h-100z M4200,1500h100v100h-100z M4300,1500h100v100h-100z M4400,1500h100v100h-100z M4900,1500h100v100h-100z M5000,1500h100v100h-100z M5100,1500h100v100h-100z M5200,1500h100v100h-100z M5300,1500h100v100h-100z M5400,1500h100v100h-100z M5500,1500h100v100h-100z M200,1600h100v100h-100z M300,1600h100v100h-100z M400,1600h100v100h-100z M1000,1600h100v100h-100z M1100,1600h100v100h-100z M1200,1600h100v100h-100z M1600,1600h100v100h-100z M1700,1600h100v100h-100z M1800,1600h100v100h-100z M2600,1600h100v100h-100z M2700,1600h100v100h-100z M2800,1600h100v100h-100z M3600,1600h100v100h-100z M3700,1600h100v100h-100z M3800,1600h100v100h-100z M4400,1600h100v100h-100z M4800,1600h100v100h-100z M4900,1600h100v100h-100z M5000,1600h100v100h-100z M5400,1600h100v100h-100z M5500,1600h100v100h-100z M5600,1600h100v100h-100z M100,1700h100v100h-100z M200,1700h100v100h-100z M300,1700h100v100h-100z M1600,1700h100v100h-100z M1700,1700h100v100h-100z M1800,1700h100v100h-100z M2600,1700h100v100h-100z M2700,1700h100v100h-100z M2800,1700h100v100h-100z M3600,1700h100v100h-100z M3700,1700h100v100h-100z M3800,1700h100v100h-100z M4100,1700h100v100h-100z M4800,1700h100v100h-100z M4900,1700h100v100h-100z M5000,1700h100v100h-100z M5400,1700h100v100h-100z M5500,1700h100v100h-100z M5600,1700h100v100h-100z M100,1800h100v100h-100z M200,1800h100v100h-100z M300,1800h100v100h-100z M1600,1800h100v100h-100z M1700,1800h100v100h-100z M1800,1800h100v100h-100z M2600,1800h100v100h-100z M2700,1800h100v100h-100z M2800,1800h100v100h-100z M3600,1800h100v100h-100z M3700,1800h100v100h-100z M3800,1800h100v100h-100z M3900,1800h100v100h-100z M4000,1800h100v100h-100z M4100,1800h100v100h-100z M4800,1800h100v100h-100z M4900,1800h100v100h-100z M5000,1800h100v100h-100z M5100,1800h100v100h-100z M5200,1800h100v100h-100z M5300,1800h100v100h-100z M5400,1800h100v100h-100z M5500,1800h100v100h-100z M5600,1800h100v100h-100z M100,1900h100v100h-100z M200,1900h100v100h-100z M300,1900h100v100h-100z M800,1900h100v100h-100z M900,1900h100v100h-100z M1000,1900h100v100h-100z M1100,1900h100v100h-100z M1200,1900h100v100h-100z M1600,1900h100v100h-100z M1700,1900h100v100h-100z M1800,1900h100v100h-100z M2600,1900h100v100h-100z M2700,1900h100v100h-100z M2800,1900h100v100h-100z M3600,1900h100v100h-100z M3700,1900h100v100h-100z M3800,1900h100v100h-100z M4100,1900h100v100h-100z M4800,1900h100v100h-100z M4900,1900h100v100h-100z M5000,1900h100v100h-100z M5400,1900h100v100h-100z M5500,1900h100v100h-100z M5600,1900h100v100h-100z M200,2000h100v100h-100z M300,2000h100v100h-100z M400,2000h100v100h-100z M900,2000h100v100h-100z M1000,2000h100v100h-100z M1100,2000h100v100h-100z M1600,2000h100v100h-100z M1700,2000h100v100h-100z M1800,2000h100v100h-100z M2600,2000h100v100h-100z M2700,2000h100v100h-100z M2800,2000h100v100h-100z M3600,2000h100v100h-100z M3700,2000h100v100h-100z M3800,2000h100v100h-100z M4400,2000h100v100h-100z M4800,2000h100v100h-100z M4900,2000h100v100h-100z M5000,2000h100v100h-100z M5400,2000h100v100h-100z M5500,2000h100v100h-100z M5600,2000h100v100h-100z M300,2100h100v100h-100z M400,2100h100v100h-100z M500,2100h100v100h-100z M600,2100h100v100h-100z M700,2100h100v100h-100z M800,2100h100v100h-100z M900,2100h100v100h-100z M1000,2100h100v100h-100z M1100,2100h100v100h-100z M1500,2100h100v100h-100z M1600,2100h100v100h-100z M1700,2100h100v100h-100z M1800,2100h100v100h-100z M1900,2100h100v100h-100z M2500,2100h100v100h-100z M2600,2100h100v100h-100z M2700,2100h100v100h-100z M2800,2100h100v100h-100z M2900,2100h100v100h-100z M3500,2100h100v100h-100z M3600,2100h100v100h-100z M3700,2100h100v100h-100z M3800,2100h100v100h-100z M3900,2100h100v100h-100z M4000,2100h100v100h-100z M4100,2100h100v100h-100z M4200,2100h100v100h-100z M4300,2100h100v100h-100z M4400,2100h100v100h-100z M4700,2100h100v100h-100z M4800,2100h100v100h-100z M4900,2100h100v100h-100z M5000,2100h100v100h-100z M5100,2100h100v100h-100z M5300,2100h100v100h-100z M5400,2100h100v100h-100z M5500,2100h100v100h-100z M5600,2100h100v100h-100z M5700,2100h100v100h-100z M400,2200h100v100h-100z M500,2200h100v100h-100z M600,2200h100v100h-100z M700,2200h100v100h-100z M800,2200h100v100h-100z M900,2200h100v100h-100z M1000,2200h100v100h-100z M1500,2200h100v100h-100z M1600,2200h100v100h-100z M1700,2200h100v100h-100z M1800,2200h100v100h-100z M1900,2200h100v100h-100z M2500,2200h100v100h-100z M2600,2200h100v100h-100z M2700,2200h100v100h-100z M2800,2200h100v100h-100z M2900,2200h100v100h-100z M3500,2200h100v100h-100z M3600,2200h100v100h-100z M3700,2200h100v100h-100z M3800,2200h100v100h-100z M3900,2200h100v100h-100z M4000,2200h100v100h-100z M4100,2200h100v100h-100z M4200,2200h100v100h-100z M4300,2200h100v100h-100z M4400,2200h100v100h-100z M4700,2200h100v100h-100z M4800,2200h100v100h-100z M4900,2200h100v100h-100z M5000,2200h100v100h-100z M5100,2200h100v100h-100z M5300,2200h100v100h-100z M5400,2200h100v100h-100z M5500,2200h100v100h-100z M5600,2200h100v100h-100z M5700,2200h100v100h-100z" fill="#4f89e8" /> <path d="M0,100h100v100h-100z M2500,100h100v100h-100z M3300,100h100v100h-100z M0,200h100v100h-100z M100,200h100v100h-100z M200,200h100v100h-100z M300,200h100v100h-100z M400,200h100v100h-100z M800,200h100v100h-100z M900,200h100v100h-100z M1000,200h100v100h-100z M1700,200h100v100h-100z M1800,200h100v100h-100z M1900,200h100v100h-100z M2000,200h100v100h-100z M2500,200h100v100h-100z M2600,200h100v100h-100z M3300,200h100v100h-100z M3400,200h100v100h-100z M400,300h100v100h-100z M2000,300h100v100h-100z M2100,300h100v100h-100z M2200,300h100v100h-100z M2600,300h100v100h-100z M3000,300h100v100h-100z M3400,300h100v100h-100z M400,400h100v100h-100z M1200,400h100v100h-100z M2600,400h100v100h-100z M3000,400h100v100h-100z M3100,400h100v100h-100z M3400,400h100v100h-100z M400,500h100v100h-100z M1200,500h100v100h-100z M2600,500h100v100h-100z M3100,500h100v100h-100z M3200,500h100v100h-100z M400,600h100v100h-100z M1200,600h100v100h-100z M1300,600h100v100h-100z M2600,600h100v100h-100z M3200,600h100v100h-100z M3300,600h100v100h-100z M1300,700h100v100h-100z M1400,700h100v100h-100z M3300,700h100v100h-100z M300,800h100v100h-100z M1400,800h100v100h-100z M1500,800h100v100h-100z M2500,800h100v100h-100z M3300,800h100v100h-100z M300,900h100v100h-100z M400,900h100v100h-100z M500,900h100v100h-100z M600,900h100v100h-100z M700,900h100v100h-100z M1500,900h100v100h-100z M1600,900h100v100h-100z M1700,900h100v100h-100z M1800,900h100v100h-100z M1900,900h100v100h-100z M2000,900h100v100h-100z M2500,900h100v100h-100z M2600,900h100v100h-100z M2700,900h100v100h-100z M2800,900h100v100h-100z M2900,900h100v100h-100z M3300,900h100v100h-100z M3400,900h100v100h-100z M3500,900h100v100h-100z M3600,900h100v100h-100z M3700,900h100v100h-100z M1400,1500h100v100h-100z M2100,1500h100v100h-100z M3400,1500h100v100h-100z M500,1600h100v100h-100z M600,1600h100v100h-100z M700,1600h100v100h-100z M800,1600h100v100h-100z M900,1600h100v100h-100z M1400,1600h100v100h-100z M1500,1600h100v100h-100z M2100,1600h100v100h-100z M2200,1600h100v100h-100z M2300,1600h100v100h-100z M2400,1600h100v100h-100z M2500,1600h100v100h-100z M2900,1600h100v100h-100z M3000,1600h100v100h-100z M3100,1600h100v100h-100z M3400,1600h100v100h-100z M3500,1600h100v100h-100z M3900,1600h100v100h-100z M4000,1600h100v100h-100z M4100,1600h100v100h-100z M4200,1600h100v100h-100z M4300,1600h100v100h-100z M5100,1600h100v100h-100z M5200,1600h100v100h-100z M5300,1600h100v100h-100z M900,1700h100v100h-100z M1000,1700h100v100h-100z M1100,1700h100v100h-100z M1500,1700h100v100h-100z M2500,1700h100v100h-100z M3500,1700h100v100h-100z M4300,1700h100v100h-100z M4700,1700h100v100h-100z M5300,1700h100v100h-100z M0,1800h100v100h-100z M1500,1800h100v100h-100z M2500,1800h100v100h-100z M3500,1800h100v100h-100z M4700,1800h100v100h-100z M0,1900h100v100h-100z M1500,1900h100v100h-100z M2500,1900h100v100h-100z M3500,1900h100v100h-100z M3900,1900h100v100h-100z M4000,1900h100v100h-100z M4700,1900h100v100h-100z M5100,1900h100v100h-100z M5200,1900h100v100h-100z M5300,1900h100v100h-100z M0,2000h100v100h-100z M100,2000h100v100h-100z M700,2000h100v100h-100z M800,2000h100v100h-100z M1500,2000h100v100h-100z M2500,2000h100v100h-100z M3500,2000h100v100h-100z M4000,2000h100v100h-100z M4700,2000h100v100h-100z M5300,2000h100v100h-100z M100,2100h100v100h-100z M200,2100h100v100h-100z M200,2200h100v100h-100z M300,2200h100v100h-100z M1400,2200h100v100h-100z M2400,2200h100v100h-100z M3400,2200h100v100h-100z M4600,2200h100v100h-100z M300,2300h100v100h-100z M400,2300h100v100h-100z M500,2300h100v100h-100z M600,2300h100v100h-100z M700,2300h100v100h-100z M800,2300h100v100h-100z M900,2300h100v100h-100z M1400,2300h100v100h-100z M1500,2300h100v100h-100z M1600,2300h100v100h-100z M1700,2300h100v100h-100z M1800,2300h100v100h-100z M2400,2300h100v100h-100z M2500,2300h100v100h-100z M2600,2300h100v100h-100z M2700,2300h100v100h-100z M2800,2300h100v100h-100z M3400,2300h100v100h-100z M3500,2300h100v100h-100z M3600,2300h100v100h-100z M3700,2300h100v100h-100z M3800,2300h100v100h-100z M3900,2300h100v100h-100z M4000,2300h100v100h-100z M4100,2300h100v100h-100z M4200,2300h100v100h-100z M4300,2300h100v100h-100z M4600,2300h100v100h-100z M4700,2300h100v100h-100z M4800,2300h100v100h-100z M4900,2300h100v100h-100z M5000,2300h100v100h-100z M5200,2300h100v100h-100z M5300,2300h100v100h-100z M5400,2300h100v100h-100z M5500,2300h100v100h-100z M5600,2300h100v100h-100z" fill="#4f89e8" fill-opacity="0.4" /> </svg>

